<svg width="375" height="289" viewBox="0 0 375 289" fill="none" xmlns="http://www.w3.org/2000/svg">
<g opacity="0.2" clip-path="url(#clip0_766_42868)">
<mask id="mask0_766_42868" style="mask-type:alpha" maskUnits="userSpaceOnUse" x="0" y="0" width="375" height="289">
<path d="M375 0H0V289H375V0Z" fill="#E9DF9D"/>
</mask>
<g mask="url(#mask0_766_42868)">
<path fill-rule="evenodd" clip-rule="evenodd" d="M187.5 144.51L187.491 144.51L-56.3456 144.681V144.51C-56.3456 129.94 -55.3646 115.269 -53.4289 100.929L187.49 144.508L187.485 144.503L-37.9081 36.8976C-33.0383 23.2705 -27.1876 9.97446 -20.5209 -2.60908L187.422 144.445L-9.9133 -20.9826C-2.4567 -32.8536 5.87663 -44.1527 14.8436 -54.5487L187.455 144.468L187.491 144.494L59.7047 -95.5807C70.5554 -103.307 82.0224 -110.101 93.7759 -115.761L187.495 144.496L187.496 144.497L111.771 -123.477C123.906 -128.063 136.458 -131.555 149.08 -133.873L187.503 144.467L206.059 -136.563C218.776 -135.449 231.502 -133.161 243.88 -129.769L187.505 144.485L187.505 144.487L187.508 144.482L187.506 144.489L187.507 144.499L187.508 144.499L345.547 -70.1527C355.217 -60.6398 364.306 -50.1636 372.578 -39.025L187.511 144.499L187.513 144.499L384.436 -21.7252C391.953 -9.83405 398.707 2.81973 404.514 15.895L187.52 144.498L187.554 144.495L187.508 144.508L187.509 144.51L431.346 144.179V144.52C431.346 159.211 430.347 173.982 428.385 188.432L187.508 144.511L187.506 144.513L412.812 252.423C407.925 266.051 402.057 279.347 395.373 291.92L187.506 144.514L187.505 144.515L384.74 310.284C377.266 322.155 368.932 333.434 359.948 343.82L187.505 144.516L187.504 144.517L315.052 384.781C304.184 392.498 292.708 399.272 280.946 404.921L187.503 144.518L187.502 144.519L262.96 412.608C250.816 417.174 238.255 420.656 225.625 422.954L187.501 144.52L187.499 144.523L168.646 425.563C155.929 424.429 143.212 422.131 130.842 418.719L187.497 144.527L187.495 144.529L112.344 412.718C100.191 408.172 88.2551 402.463 76.8662 395.749L187.487 144.539L29.2447 358.972C19.5833 349.439 10.4947 338.953 2.23953 327.804L187.493 144.525L187.5 144.51ZM187.554 144.495L424.531 78.2006C427.517 92.5001 429.549 107.201 430.564 121.892L187.554 144.495ZM187.508 144.482L262.378 -123.798C274.54 -119.263 286.484 -113.573 297.882 -106.88L187.508 144.482ZM-55.5903 166.787L187.5 144.51L-49.6007 210.508C-52.5781 196.199 -54.592 181.488 -55.5903 166.787ZM-29.6355 272.854L187.5 144.51L-9.60075 310.494C-17.1007 298.603 -23.8455 285.939 -29.6355 272.854ZM187.5 144.51L187.501 144.51L187.504 144.515L187.503 144.516L187.5 144.51ZM187.501 144.51L187.507 144.511L187.506 144.513L187.501 144.51ZM187.501 144.51L187.505 144.514L187.505 144.514L187.501 144.51ZM187.497 144.522L187.5 144.51L187.498 144.521L187.497 144.522ZM187.499 144.519L187.5 144.51L187.501 144.518L187.499 144.519ZM187.502 144.517L187.5 144.51L187.502 144.516L187.502 144.517Z" fill="url(#paint0_radial_766_42868)"/>
</g>
</g>
<defs>
<radialGradient id="paint0_radial_766_42868" cx="0" cy="0" r="1" gradientUnits="userSpaceOnUse" gradientTransform="translate(187.5 144.5) rotate(90.5569) scale(154.333 263.243)">
<stop stop-color="#E63D41"/>
<stop offset="1" stop-color="#E63D41" stop-opacity="0"/>
</radialGradient>
<clipPath id="clip0_766_42868">
<rect width="375" height="289" fill="white"/>
</clipPath>
</defs>
</svg>
