<svg width="1280" height="832" viewBox="0 0 1280 832" fill="none" xmlns="http://www.w3.org/2000/svg">
<g opacity="0.2" clip-path="url(#clip0_776_41210)">
<mask id="mask0_776_41210" style="mask-type:alpha" maskUnits="userSpaceOnUse" x="0" y="0" width="1280" height="832">
<path d="M1280 0H0V832H1280V0Z" fill="#E9DF9D"/>
</mask>
<g mask="url(#mask0_776_41210)">
<path fill-rule="evenodd" clip-rule="evenodd" d="M343.02 381.454L343.021 381.462L343.029 381.448L343.022 381.468L343.028 381.498L343.031 381.498L950.311 -248.95C987.469 -221.01 1022.39 -190.24 1054.18 -157.525L343.043 381.497L343.051 381.496L1099.74 -106.715C1128.63 -71.7898 1154.58 -34.6248 1176.9 3.77811L343.077 381.495L343.206 381.485L343.032 381.523L343.033 381.53L1280 380.557V381.559C1280 424.707 1276.16 468.091 1268.63 510.531L343.029 381.534L343.024 381.539L1208.78 698.479C1190.01 738.503 1167.46 777.554 1141.77 814.483L343.022 381.542L343.02 381.543L1100.91 868.418C1072.19 903.284 1040.17 936.412 1005.65 966.916L343.018 381.545L343.014 381.55L833.131 1087.22C791.369 1109.89 747.273 1129.78 702.076 1146.37L343.011 381.553L343.009 381.555L632.963 1168.95C586.298 1182.36 538.032 1192.59 489.499 1199.34L343.005 381.559L342.996 381.568L270.551 1207C221.685 1203.67 172.818 1196.92 125.286 1186.9L342.987 381.578L342.979 381.585L54.2047 1169.27C7.50641 1155.92 -38.3579 1139.15 -82.1208 1119.44L342.95 381.616L-265.111 1011.42C-302.236 983.42 -337.16 952.621 -368.881 919.877L342.974 381.574L343 381.53L342.987 381.565L342.991 381.561L343 381.53L342.997 381.557L343.004 381.552L343 381.53L343.007 381.549L343.009 381.548L343 381.53L343.011 381.546L343.015 381.543L343 381.53L343.022 381.538L343.028 381.533L343 381.53L342.966 381.53L-594 382.03V381.529C-594 338.735 -590.231 295.646 -582.792 253.53L342.96 381.524L342.942 381.508L-523.152 65.4646C-504.439 25.4407 -481.958 -13.6106 -456.34 -50.5693L342.701 381.338L-415.58 -104.534C-386.927 -139.4 -354.905 -172.586 -320.449 -203.12L342.825 381.406L342.966 381.482L-148.066 -323.634C-106.371 -346.327 -62.3076 -366.28 -17.1437 -382.903L342.981 381.49L342.986 381.492L52.0033 -405.568C98.6348 -419.037 146.867 -429.293 195.367 -436.101L343.011 381.403L414.315 -444C463.181 -440.729 512.081 -434.009 559.646 -424.047L343.02 381.454ZM343 381.53L-491.364 758.485C-469.116 796.917 -443.198 834.112 -414.379 869.037L343 381.53ZM343 381.53L-591.098 446.959C-587.262 490.136 -579.523 533.343 -568.082 575.371L343 381.53ZM343.206 381.485L1253.82 186.774C1265.29 228.773 1273.09 271.95 1277 315.098L343.206 381.485ZM343.029 381.448L767.153 -356.82C723.357 -376.478 677.459 -393.189 630.728 -406.511L343.029 381.448Z" fill="url(#paint0_radial_776_41210)"/>
</g>
</g>
<defs>
<radialGradient id="paint0_radial_776_41210" cx="0" cy="0" r="1" gradientUnits="userSpaceOnUse" gradientTransform="translate(343 381.5) rotate(89.7347) scale(364.728 813.879)">
<stop stop-color="#E63D41"/>
<stop offset="1" stop-color="#E63D41" stop-opacity="0"/>
</radialGradient>
<clipPath id="clip0_776_41210">
<rect width="1280" height="832" fill="white"/>
</clipPath>
</defs>
</svg>
