<svg width="224" height="224" viewBox="0 0 224 224" fill="none" xmlns="http://www.w3.org/2000/svg">
<rect width="224" height="224" fill="#E7E7E7"/>
<rect x="0.5" y="0.5" width="223" height="223" fill="#E63D41"/>
<path d="M57.6367 67.6055C63.4375 67.6055 67.9297 66.8828 71.0938 65.457C74.2578 64.0312 75.8398 61.8242 75.8398 58.8359C75.8398 56.5508 74.6875 54.793 72.8516 53.8359C71.0156 52.8789 68.5742 52.2734 65.9375 52.0586C59.4141 51.4336 52.0898 52.293 52.0898 50.2031C52.0898 49.7539 52.6172 49.4219 53.6523 49.207C54.6875 48.9922 56.0547 48.875 57.7539 48.875C60.5273 48.875 63.2422 49.168 65.8789 49.7539C68.5156 50.3594 70.7227 51.1602 72.5195 52.1562V40.5547C70.625 39.9102 68.2422 39.3828 65.3906 38.9922C62.5391 38.6016 59.8438 38.4062 57.2852 38.4062C53.0078 38.4062 49.4922 38.7578 46.4062 39.6172C41.8945 40.8672 39.082 43.2109 39.082 47C39.082 58.0352 62.7148 52.957 62.7148 56.043C62.7148 56.8047 60.8984 57.1953 57.2852 57.1953C53.4375 57.1953 49.9609 56.7852 46.8555 55.9648C43.75 55.1445 41.2109 53.9336 39.2383 52.3125L38.7695 65.0078C40.957 65.6719 44.0039 66.2773 47.8906 66.8047C51.7773 67.332 55.0391 67.6055 57.6367 67.6055ZM89.707 67C89.7852 65.2812 90.0977 63.2695 90.6641 60.9648L90.8008 60.4766H98.75L98.8672 60.9258C99.4141 63.2305 99.7266 65.2617 99.8242 67H115.508C114.59 65.5938 113.613 63.7969 112.578 61.6094C111.523 59.4219 110.605 57.293 109.824 55.2031L108.105 50.8086C107.344 48.8359 106.641 46.7266 106.016 44.5C105.391 42.293 104.98 40.457 104.785 38.9922H84.7461C84.5703 40.418 84.1797 42.2539 83.5547 44.4609C82.9102 46.668 82.207 48.7969 81.4258 50.8086L79.7461 55.2031C78.9844 57.2539 78.0664 59.3633 77.0117 61.5703C75.9375 63.7773 74.9414 65.5742 74.0234 67H89.707ZM93.3984 53.8359C93.5352 53.4453 93.6523 53.0742 93.75 52.7812C93.7891 52.6445 93.8281 52.4688 93.8867 52.2539C93.9648 51.8633 94.0039 51.7852 94.1016 51.3164C94.1406 51.1016 94.1602 50.9453 94.1797 50.8867C94.1992 50.8281 94.2188 50.6523 94.2578 50.3789C94.2969 50.1055 94.3164 49.9492 94.3359 49.8906C94.3359 49.832 94.3555 49.6562 94.3945 49.3242C94.4336 48.9922 94.4531 48.8164 94.4727 48.7578H95.0781C95.1758 49.6367 95.2539 50.2422 95.3125 50.5938C95.3711 50.9453 95.4688 51.4336 95.625 52.0586C95.7617 52.7031 95.9375 53.2891 96.1523 53.8359L97.1875 56.5117H92.3828L93.3984 53.8359ZM139.59 67C139.766 65.5742 140.156 63.7578 140.781 61.5508C141.406 59.3438 142.109 57.2344 142.871 55.2031L144.551 50.8086C145.332 48.7969 146.27 46.668 147.363 44.4609C148.438 42.2539 149.453 40.418 150.391 38.9922H135.059C134.922 40.9648 134.512 43.1523 133.789 45.5156L131.621 51.8438C131.055 53.543 130.684 55.1055 130.469 56.5508H129.98C129.746 55.0664 129.355 53.5039 128.789 51.8438L126.621 45.5156C125.918 43.4648 125.488 41.2773 125.352 38.9922H109.453C110.391 40.4375 111.406 42.2734 112.5 44.4805C113.574 46.707 114.492 48.8164 115.254 50.8086L116.973 55.2031C117.754 57.1758 118.457 59.2852 119.082 61.4922C119.688 63.6992 120.078 65.5352 120.254 67H139.59ZM184.18 67L186.172 54.2852C184.121 55.7695 180.684 56.5117 175.859 56.5117H165.137V54.7148H172.656C174.941 54.7148 176.816 54.8125 178.262 55.0078V51.082C176.816 51.2383 174.941 51.3164 172.656 51.3164H165.137V49.4805H176.25C180.293 49.4805 183.496 50.0469 184.824 51.043L183.223 38.9922H151.055C151.484 40.418 151.836 42.2344 152.129 44.4609C152.402 46.707 152.539 48.8164 152.539 50.8086V55.2031C152.539 57.2539 152.402 59.3828 152.148 61.5898C151.875 63.7969 151.504 65.5938 151.055 67H184.18Z" fill="#FDECD1"/>
<path d="M49.2949 130.436V125.606C54.2588 125.27 58.0996 124.191 60.7949 122.327C63.4902 120.463 64.8379 117.857 64.8379 114.511C64.8379 102.09 39.9062 106.672 39.9062 102.404C39.9062 101.82 40.4678 101.371 41.5908 101.057C42.6914 100.742 44.1514 100.585 45.9707 100.585C48.2393 100.585 51.0469 100.922 54.3936 101.596C57.7402 102.27 60.0762 103.011 61.4463 103.797V94.7227C58.3467 93.5322 54.3037 92.7461 49.2949 92.3867V87.5127H42.0625V92.3867C33.1455 92.9707 26.834 96.2051 26.834 103.146C26.834 115.297 51.6758 112.332 51.6758 115.701C51.6758 116.757 49.7217 117.273 45.791 117.273C42.1748 117.273 38.6934 116.847 35.3467 115.993C32 115.14 29.2148 114.039 26.9912 112.714L26.4746 122.664C28.2939 123.271 30.6973 123.854 33.6396 124.394C36.582 124.955 39.3896 125.314 42.0625 125.517V130.436H49.2949ZM104.077 125V112.894H93.0264V98.9229C93.0264 96.1602 93.2061 94.1162 93.543 92.791H84.1992C82.29 94.1162 79.9541 95.2168 77.1914 96.0928C74.4062 96.9688 71.4863 97.5752 68.4541 97.9121V108.94C72.6094 108.94 76.9668 108.334 81.4814 107.099V112.894H67.3086V125H104.077ZM136.017 125.022C145.136 123.226 151.807 117.745 151.807 108.896C151.807 103.482 149.224 99.0352 145.001 96.3174C140.778 93.5996 135.163 92.1172 128.807 92.1172C122.45 92.1172 116.835 93.5996 112.612 96.3174C108.39 99.0352 105.807 103.482 105.807 108.896C105.807 115.499 109.558 120.306 115.285 122.956C117.217 123.877 119.328 124.573 121.597 125.022C126.089 125.898 131.524 125.898 136.017 125.022ZM122.585 113.208C120.766 112.871 119.283 112.332 118.138 111.591C116.992 110.85 116.431 109.951 116.431 108.896C116.431 105.526 121.979 104.021 128.807 104.021C135.635 104.021 141.183 105.526 141.183 108.896C141.183 109.951 140.621 110.85 139.476 111.591C138.33 112.332 136.87 112.871 135.051 113.208C133.231 113.545 131.143 113.725 128.807 113.725C126.471 113.725 124.404 113.545 122.585 113.208ZM181.814 125.696C187.744 125.696 193.494 125.09 199.064 123.899V112.31C195.179 114.982 190.484 116.308 184.937 116.308C178.176 116.308 173.684 115.364 171.595 112.849H189.159V110.198H170.404C170.314 109.794 170.27 109.345 170.27 108.851C170.27 108.559 170.292 108.222 170.359 107.795H189.159V105.122H171.37C173.145 102.696 177.232 101.483 183.656 101.483C186.374 101.483 188.89 101.843 191.226 102.562C193.562 103.303 195.358 104.179 196.616 105.212L197.672 94.9248C195.673 94.0938 193.247 93.4199 190.439 92.9033C187.632 92.3867 184.6 92.1172 181.343 92.1172C175.75 92.1172 170.831 93.083 166.653 95.1045C162.476 97.126 159.466 100.63 158.478 105.122H152.907V107.795H158.163C158.163 108.042 158.118 108.604 158.118 108.851C158.118 109.479 158.141 109.929 158.163 110.198H152.907V112.849H158.567C159.646 117.251 162.79 120.71 167.035 122.709C171.258 124.708 176.267 125.696 181.814 125.696Z" fill="#FDECD1"/>
<path d="M42.1992 146L43.998 140.398H44.1211L45.9199 146H49.1016C49.166 145.256 49.3652 144.377 49.6992 143.369L50.8652 140.117C51.2227 139.045 51.5801 138.207 51.9434 137.598H48.7852C48.7559 138.066 48.6621 138.588 48.498 139.162L47.4082 142.098C47.2148 142.725 47.0918 143.164 47.0332 143.422H46.9277L45.0176 137.598H43.1016L41.1914 143.422H41.0859C40.9805 143.006 40.8516 142.566 40.6992 142.098L39.6211 139.162C39.4512 138.617 39.3633 138.096 39.3457 137.598H36.1758C36.5391 138.207 36.8965 139.045 37.2539 140.117L38.4199 143.369C38.7539 144.359 38.9531 145.238 39.0293 146H42.1992ZM55.8398 146C55.6465 145.396 55.5469 144.553 55.5469 143.48V140.117C55.5469 139.08 55.6465 138.242 55.8398 137.598H52.7402C52.9395 138.254 53.0391 139.092 53.0391 140.117V143.48C53.0391 144.541 52.9395 145.385 52.7402 146H55.8398ZM63.2988 146C63.0938 145.361 62.9941 144.518 62.9941 143.48V139.783H64.6758C65.5078 139.783 66.1582 139.871 66.6211 140.047L66.1641 137.598H57.3105L56.8535 140.047C57.3047 139.871 57.9492 139.783 58.7988 139.783H60.4863V143.48C60.4863 144.518 60.3926 145.361 60.1992 146H63.2988ZM70.7109 146C70.5176 145.414 70.418 144.611 70.418 143.586V142.508H74.7422V143.586C74.7422 144.441 74.6426 145.244 74.4434 146H77.5371C77.3379 145.385 77.2383 144.541 77.2383 143.48V140.117C77.2383 139.092 77.3379 138.254 77.5371 137.598H74.4434C74.6426 138.254 74.7422 139.057 74.7422 140.012V141.043H70.418V140.012C70.418 139.045 70.5176 138.242 70.7109 137.598H67.6113C67.8105 138.266 67.9102 139.104 67.9102 140.117V143.48C67.9102 144.541 67.8105 145.385 67.6113 146H70.7109ZM85.4883 146C85.2949 145.396 85.1953 144.57 85.1953 143.527V141.764H85.3066C85.4648 142.473 85.8516 143.018 86.4727 143.398C87.0879 143.779 87.8613 143.973 88.7871 143.973C89.8477 143.973 90.6914 143.686 91.3242 143.105C91.9512 142.531 92.2676 141.74 92.2676 140.732C92.2676 138.693 90.5332 137.598 88.1953 137.598H82.3887C82.5879 138.254 82.6875 139.092 82.6875 140.117V143.48C82.6875 144.541 82.5879 145.385 82.3887 146H85.4883ZM87.7559 142.244C86.4258 142.268 85.207 141.518 85.1953 140.357V139.689C85.8281 139.602 86.6895 139.555 87.7793 139.555C89.0449 139.555 89.7715 140.059 89.7715 140.879C89.7715 141.283 89.5781 141.611 89.1855 141.863C88.793 142.115 88.3125 142.244 87.7559 142.244ZM102.182 146.182C102.527 146.182 102.855 146.117 103.166 145.977C103.477 145.842 103.699 145.672 103.846 145.461L103.787 142.678C103.488 143.363 102.961 143.709 102.217 143.709C101.742 143.709 101.367 143.469 101.086 143.17C100.945 143.023 100.799 142.871 100.641 142.725C100.324 142.426 99.7793 142.186 99.0703 142.186H99V142.074H99.5859C100.658 142.074 101.52 141.869 102.182 141.465C102.838 141.061 103.166 140.504 103.166 139.807C103.166 139.098 102.832 138.553 102.158 138.172C101.484 137.791 100.594 137.598 99.4805 137.598H93.3105C93.5039 138.225 93.5977 139.068 93.5977 140.117V143.48C93.5977 144.518 93.5039 145.361 93.3105 146H96.3984C96.2051 145.385 96.1055 144.582 96.1055 143.598V142.725C96.3105 142.672 96.6973 142.643 97.2715 142.643C98.5957 142.643 99.0762 143.334 99.4629 144.119C99.6504 144.512 99.832 144.91 100.096 145.262C100.471 145.789 101.08 146.182 102.182 146.182ZM96.1055 139.736H99.1934C99.6328 139.736 99.9844 139.812 100.254 139.971C100.523 140.129 100.658 140.34 100.658 140.609C100.658 141.166 100.066 141.488 99.1465 141.488H96.1055V139.736ZM109.799 146.17C111.363 146.17 112.711 145.76 113.678 145.027C114.639 144.301 115.213 143.164 115.213 141.799C115.213 140.434 114.639 139.297 113.678 138.564C112.711 137.838 111.363 137.434 109.799 137.434C108.756 137.434 107.83 137.604 107.027 137.938C106.219 138.271 105.58 138.775 105.111 139.438C104.637 140.105 104.402 140.891 104.402 141.799C104.402 143.164 104.977 144.301 105.938 145.027C106.898 145.76 108.246 146.17 109.799 146.17ZM109.799 144.213C108.961 144.213 108.275 143.996 107.742 143.562C107.209 143.129 106.945 142.543 106.945 141.799C106.945 141.055 107.209 140.469 107.742 140.035C108.275 139.607 108.961 139.391 109.799 139.391C110.648 139.391 111.34 139.607 111.873 140.035C112.406 140.469 112.67 141.055 112.67 141.799C112.67 142.543 112.406 143.129 111.873 143.562C111.34 143.996 110.648 144.213 109.799 144.213ZM119.461 146C119.379 145.725 119.309 145.338 119.256 144.846C119.197 144.359 119.168 143.879 119.168 143.41V140.562H119.279L122.35 146H123.117L126.205 140.562H126.346V143.41C126.346 143.885 126.316 144.365 126.264 144.852C126.211 145.344 126.141 145.725 126.059 146H129.152C128.953 145.344 128.854 144.506 128.854 143.48V140.117C128.854 139.057 128.953 138.213 129.152 137.598H125.889L123.768 141.395C123.346 142.186 123.041 142.812 122.854 143.275H122.725C122.502 142.73 122.197 142.104 121.811 141.395L119.713 137.598H116.361C116.555 138.189 116.648 139.027 116.648 140.117V143.48C116.648 144.529 116.555 145.373 116.361 146H119.461ZM135.768 146.17C137.332 146.17 138.68 145.76 139.646 145.027C140.607 144.301 141.182 143.164 141.182 141.799C141.182 140.434 140.607 139.297 139.646 138.564C138.68 137.838 137.332 137.434 135.768 137.434C134.725 137.434 133.799 137.604 132.996 137.938C132.188 138.271 131.549 138.775 131.08 139.438C130.605 140.105 130.371 140.891 130.371 141.799C130.371 143.164 130.945 144.301 131.906 145.027C132.867 145.76 134.215 146.17 135.768 146.17ZM135.768 144.213C134.93 144.213 134.244 143.996 133.711 143.562C133.178 143.129 132.914 142.543 132.914 141.799C132.914 141.055 133.178 140.469 133.711 140.035C134.244 139.607 134.93 139.391 135.768 139.391C136.617 139.391 137.309 139.607 137.842 140.035C138.375 140.469 138.639 141.055 138.639 141.799C138.639 142.543 138.375 143.129 137.842 143.562C137.309 143.996 136.617 144.213 135.768 144.213ZM150.943 146.17C152.473 146.17 153.814 145.959 154.975 145.531V142.965C154.547 143.287 154.02 143.539 153.404 143.721C152.789 143.902 152.133 143.996 151.436 143.996C150.727 143.996 150.094 143.914 149.543 143.756C148.992 143.598 148.553 143.346 148.225 143.006C147.891 142.672 147.727 142.268 147.727 141.799C147.715 140.428 149.279 139.578 151.23 139.602C151.881 139.602 152.49 139.689 153.064 139.859C153.639 140.035 154.096 140.258 154.436 140.527L154.623 138.166C154.16 137.943 153.609 137.768 152.959 137.633C152.309 137.498 151.611 137.434 150.879 137.434C149.631 137.434 148.494 137.662 147.539 138.137C146.127 138.822 145.195 140.07 145.195 141.811C145.195 142.953 145.623 143.932 146.332 144.605C147.387 145.637 149.086 146.188 150.943 146.17ZM161.045 146.17C162.609 146.17 163.957 145.76 164.924 145.027C165.885 144.301 166.459 143.164 166.459 141.799C166.459 140.434 165.885 139.297 164.924 138.564C163.957 137.838 162.609 137.434 161.045 137.434C160.002 137.434 159.076 137.604 158.273 137.938C157.465 138.271 156.826 138.775 156.357 139.438C155.883 140.105 155.648 140.891 155.648 141.799C155.648 143.164 156.223 144.301 157.184 145.027C158.145 145.76 159.492 146.17 161.045 146.17ZM161.045 144.213C160.207 144.213 159.521 143.996 158.988 143.562C158.455 143.129 158.191 142.543 158.191 141.799C158.191 141.055 158.455 140.469 158.988 140.035C159.521 139.607 160.207 139.391 161.045 139.391C161.895 139.391 162.586 139.607 163.119 140.035C163.652 140.469 163.916 141.055 163.916 141.799C163.916 142.543 163.652 143.129 163.119 143.562C162.586 143.996 161.895 144.213 161.045 144.213ZM172.875 146C174.422 146 175.641 145.631 176.537 144.893C177.434 144.154 177.879 143.123 177.879 141.799C177.879 140.475 177.434 139.443 176.537 138.705C175.641 137.967 174.422 137.598 172.875 137.598H167.607C167.807 138.254 167.906 139.092 167.906 140.117V143.48C167.906 144.541 167.807 145.385 167.607 146H172.875ZM170.414 139.771H172.676C173.473 139.771 174.111 139.953 174.592 140.311C175.072 140.668 175.312 141.166 175.312 141.799C175.312 142.432 175.072 142.924 174.598 143.281C174.123 143.639 173.479 143.814 172.676 143.814H170.414V139.771ZM187.986 146L188.42 143.457C187.957 143.744 187.207 143.891 186.164 143.891H181.84V142.484H185.168C185.777 142.484 186.246 142.514 186.568 142.566V141.031C186.223 141.078 185.754 141.102 185.168 141.102H181.84V139.713H186.152C187.119 139.713 187.764 139.812 188.098 140.012L187.734 137.598H179.033C179.232 138.254 179.332 139.092 179.332 140.117V143.48C179.332 144.541 179.232 145.385 179.033 146H187.986Z" fill="#FDECD1"/>
<rect width="122" height="32" transform="translate(51.5 159)" fill="#FFD632"/>
<path d="M67.6289 179.182C69.3691 179.182 70.7168 178.965 71.666 178.537C72.6152 178.109 73.0898 177.447 73.0898 176.551C73.0898 175.865 72.7441 175.338 72.1934 175.051C71.6426 174.764 70.9102 174.582 70.1191 174.518C68.1621 174.33 65.9648 174.588 65.9648 173.961C65.9648 173.826 66.123 173.727 66.4336 173.662C66.7441 173.598 67.1543 173.562 67.6641 173.562C68.4961 173.562 69.3105 173.65 70.1016 173.826C70.8926 174.008 71.5547 174.248 72.0938 174.547V171.066C71.5254 170.873 70.8105 170.715 69.9551 170.598C69.0996 170.48 68.291 170.422 67.5234 170.422C66.2402 170.422 65.1855 170.527 64.2598 170.785C62.9062 171.16 62.0625 171.863 62.0625 173C62.0625 176.311 69.1523 174.787 69.1523 175.713C69.1523 175.941 68.6074 176.059 67.5234 176.059C66.3691 176.059 65.3262 175.936 64.3945 175.689C63.4629 175.443 62.7012 175.08 62.1094 174.594L61.9688 178.402C62.625 178.602 63.5391 178.783 64.7051 178.941C65.8711 179.1 66.8496 179.182 67.6289 179.182ZM79.5117 179.182C81.0586 179.182 82.5586 179.023 84.0117 178.713V174.869C83.0098 175.566 81.7793 175.918 80.3145 175.918C78.2109 175.918 77.1621 175.543 77.1621 174.787C77.1621 174.535 77.291 174.324 77.5488 174.154C78.0586 173.809 78.8965 173.674 79.9805 173.674C80.6895 173.674 81.3516 173.768 81.9668 173.961C82.582 174.154 83.0449 174.383 83.3672 174.658L83.6426 171.154C83.1211 170.938 82.4941 170.762 81.7617 170.627C81.0293 170.492 80.2383 170.422 79.3945 170.422C78.082 170.422 76.916 170.609 75.8789 171.055C75.3574 171.283 74.9121 171.559 74.5371 171.893C73.7871 172.555 73.3184 173.568 73.3184 174.787C73.3184 176.006 73.8047 177.025 74.5781 177.693C74.9648 178.027 75.4219 178.309 75.9551 178.537C77.0156 178.988 78.1992 179.182 79.5117 179.182ZM93.9961 179.182C94.4355 179.182 94.8574 179.094 95.2676 178.918C95.6719 178.748 95.9531 178.531 96.0996 178.279V174.043C95.918 174.447 95.6191 174.787 95.2031 175.062C94.7871 175.344 94.2773 175.484 93.6738 175.484C92.5254 175.484 91.8984 175.15 91.3184 175.15H91.3066V175.027H91.6348C92.4785 175.027 93.2109 174.951 93.8262 174.799C94.4414 174.652 94.9336 174.406 95.3027 174.066C95.666 173.732 95.8477 173.316 95.8477 172.818C95.8477 172.326 95.666 171.91 95.2969 171.57C94.5586 170.891 93.293 170.598 91.6113 170.598H84.7324C84.8672 171.025 84.9727 171.576 85.0547 172.238C85.1367 172.9 85.1777 173.539 85.1777 174.143V175.461C85.1777 176.076 85.1367 176.715 85.0605 177.377C84.9785 178.039 84.8672 178.578 84.7324 179H89.4023C89.2617 178.566 89.1504 178.051 89.0742 177.459C88.998 176.867 88.957 176.27 88.957 175.666V175.543C89.0449 175.502 89.1562 175.484 89.291 175.484C90.2285 175.484 90.5332 176.211 90.9023 177.025C91.084 177.43 91.2773 177.852 91.5938 178.221C92.0391 178.771 92.7656 179.182 93.9961 179.182ZM88.957 173.779H91.1543C91.7578 173.779 92.0625 173.932 92.0625 174.236C92.0625 174.535 91.6992 174.693 91.1543 174.693H88.957V173.779ZM100.629 179C100.652 178.484 100.746 177.881 100.916 177.189L100.957 177.043H103.342L103.377 177.178C103.541 177.869 103.635 178.479 103.664 179H108.369C108.094 178.578 107.801 178.039 107.49 177.383C107.174 176.727 106.898 176.088 106.664 175.461L106.148 174.143C105.92 173.551 105.709 172.918 105.521 172.25C105.334 171.588 105.211 171.037 105.152 170.598H99.1406C99.0879 171.025 98.9707 171.576 98.7832 172.238C98.5898 172.9 98.3789 173.539 98.1445 174.143L97.6406 175.461C97.4121 176.076 97.1367 176.709 96.8203 177.371C96.498 178.033 96.1992 178.572 95.9238 179H100.629ZM101.736 175.051C101.777 174.934 101.812 174.822 101.842 174.734C101.854 174.693 101.865 174.641 101.883 174.576C101.906 174.459 101.918 174.436 101.947 174.295C101.959 174.23 101.965 174.184 101.971 174.166C101.977 174.148 101.982 174.096 101.994 174.014C102.006 173.932 102.012 173.885 102.018 173.867C102.018 173.85 102.023 173.797 102.035 173.697C102.047 173.598 102.053 173.545 102.059 173.527H102.24C102.27 173.791 102.293 173.973 102.311 174.078C102.328 174.184 102.357 174.33 102.404 174.518C102.445 174.711 102.498 174.887 102.562 175.051L102.873 175.854H101.432L101.736 175.051ZM114.762 179C114.627 178.572 114.521 178.021 114.439 177.359C114.357 176.697 114.316 176.064 114.316 175.461V173.861H115.207C116.291 173.861 117.146 173.996 117.773 174.271L117.129 170.598H107.695L107.045 174.271C107.66 173.996 108.521 173.861 109.629 173.861H110.537V175.461C110.537 176.076 110.496 176.709 110.42 177.371C110.344 178.033 110.238 178.572 110.104 179H114.762ZM124.02 179.182C125.566 179.182 127.066 179.023 128.52 178.713V174.869C127.518 175.566 126.287 175.918 124.822 175.918C122.719 175.918 121.67 175.543 121.67 174.787C121.67 174.535 121.799 174.324 122.057 174.154C122.566 173.809 123.404 173.674 124.488 173.674C125.197 173.674 125.859 173.768 126.475 173.961C127.09 174.154 127.553 174.383 127.875 174.658L128.15 171.154C127.629 170.938 127.002 170.762 126.27 170.627C125.537 170.492 124.746 170.422 123.902 170.422C122.59 170.422 121.424 170.609 120.387 171.055C119.865 171.283 119.42 171.559 119.045 171.893C118.295 172.555 117.826 173.568 117.826 174.787C117.826 176.006 118.312 177.025 119.086 177.693C119.473 178.027 119.93 178.309 120.463 178.537C121.523 178.988 122.707 179.182 124.02 179.182ZM133.91 179C133.611 178.127 133.465 177.008 133.465 175.643V175.379H135.938V175.643C135.938 176.205 135.896 176.785 135.814 177.389C135.727 177.992 135.621 178.531 135.492 179H140.162C140.027 178.578 139.916 178.039 139.84 177.377C139.758 176.715 139.717 176.076 139.717 175.461V174.143C139.717 173.539 139.758 172.9 139.84 172.227C139.922 171.559 140.027 171.014 140.162 170.598H135.492C135.627 171.043 135.732 171.57 135.814 172.174C135.896 172.783 135.938 173.381 135.938 173.961V174.102H133.465V173.961C133.465 172.678 133.611 171.553 133.91 170.598H129.24C129.369 171.037 129.475 171.588 129.562 172.25C129.645 172.918 129.686 173.551 129.686 174.143V175.461C129.686 176.076 129.645 176.715 129.568 177.377C129.486 178.039 129.375 178.578 129.24 179H133.91ZM150.557 179V175.842H147.674V172.197C147.674 171.477 147.721 170.943 147.809 170.598H145.371C144.873 170.943 144.264 171.23 143.543 171.459C142.816 171.688 142.055 171.846 141.264 171.934V174.811C142.348 174.811 143.484 174.652 144.662 174.33V175.842H140.965V179H150.557ZM158.889 179.006C161.268 178.537 163.008 177.107 163.008 174.799C163.008 173.387 162.334 172.227 161.232 171.518C160.131 170.809 158.666 170.422 157.008 170.422C155.35 170.422 153.885 170.809 152.783 171.518C151.682 172.227 151.008 173.387 151.008 174.799C151.008 176.521 151.986 177.775 153.48 178.467C153.984 178.707 154.535 178.889 155.127 179.006C156.299 179.234 157.717 179.234 158.889 179.006ZM155.385 175.924C154.91 175.836 154.523 175.695 154.225 175.502C153.926 175.309 153.779 175.074 153.779 174.799C153.779 173.92 155.227 173.527 157.008 173.527C158.789 173.527 160.236 173.92 160.236 174.799C160.236 175.074 160.09 175.309 159.791 175.502C159.492 175.695 159.111 175.836 158.637 175.924C158.162 176.012 157.617 176.059 157.008 176.059C156.398 176.059 155.859 176.012 155.385 175.924Z" fill="#E63D41"/>
<rect x="0.5" y="0.5" width="223" height="223" stroke="black"/>
</svg>
