<svg width="303" height="303" viewBox="0 0 303 303" fill="none" xmlns="http://www.w3.org/2000/svg">
<rect width="100.436" height="100.436" transform="translate(1 1)" fill="#E63D41"/>
<path d="M30.7533 49.324L68.3878 27.4882C68.9644 27.1536 69.5728 27.8719 69.1479 28.3856L53.1207 47.7628C52.8376 48.1049 53.0137 48.6253 53.4463 48.7255L72.3689 53.1044C72.9031 53.2281 73.0024 53.9458 72.5219 54.2099L28.4366 78.4364C27.8328 78.7682 27.2398 77.9834 27.7238 77.4932L47.7239 57.2383C48.0318 56.9265 47.9103 56.4003 47.497 56.255L30.855 50.4042C30.3739 50.2351 30.3123 49.5799 30.7533 49.324Z" fill="#FFD832"/>
<path d="M30.7533 46.9346L68.3878 25.0988C68.9644 24.7642 69.5728 25.4825 69.1479 25.9962L53.1207 45.3734C52.8376 45.7155 53.0137 46.2359 53.4463 46.336L72.3689 50.715C72.9031 50.8387 73.0024 51.5564 72.5219 51.8205L28.4366 76.047C27.8328 76.3788 27.2398 75.594 27.7238 75.1038L47.7239 54.8488C48.0318 54.5371 47.9103 54.0109 47.497 53.8656L30.855 48.0148C30.3739 47.8457 30.3123 47.1905 30.7533 46.9346Z" fill="#E63D41"/>
<path d="M30.7533 44.5452L68.3878 22.7094C68.9644 22.3748 69.5728 23.0931 69.1479 23.6068L53.1207 42.9839C52.8376 43.3261 53.0137 43.8465 53.4463 43.9466L72.3689 48.3256C72.9031 48.4492 73.0024 49.167 72.5219 49.4311L28.4366 73.6576C27.8328 73.9894 27.2398 73.2046 27.7238 72.7144L47.7239 52.4594C48.0318 52.1477 47.9103 51.6215 47.497 51.4762L30.855 45.6254C30.3739 45.4563 30.3123 44.8011 30.7533 44.5452Z" fill="#FDECD1"/>
<rect width="100.436" height="100.436" transform="translate(101.436 1)" fill="#E63D41"/>
<path d="M131.189 49.324L168.824 27.4882C169.4 27.1536 170.009 27.8719 169.584 28.3856L153.557 47.7628C153.274 48.1049 153.45 48.6253 153.882 48.7255L172.805 53.1044C173.339 53.2281 173.438 53.9458 172.958 54.2099L128.873 78.4364C128.269 78.7682 127.676 77.9834 128.16 77.4932L148.16 57.2383C148.468 56.9265 148.346 56.4003 147.933 56.255L131.291 50.4042C130.81 50.2351 130.748 49.5799 131.189 49.324Z" fill="#FFD832"/>
<path d="M131.189 46.9346L168.824 25.0988C169.4 24.7642 170.009 25.4825 169.584 25.9962L153.557 45.3734C153.274 45.7155 153.45 46.2359 153.882 46.336L172.805 50.715C173.339 50.8387 173.438 51.5564 172.958 51.8205L128.873 76.047C128.269 76.3788 127.676 75.594 128.16 75.1038L148.16 54.8488C148.468 54.5371 148.346 54.0109 147.933 53.8656L131.291 48.0148C130.81 47.8457 130.748 47.1905 131.189 46.9346Z" fill="#E63D41"/>
<path d="M131.189 44.5452L168.824 22.7094C169.4 22.3748 170.009 23.0931 169.584 23.6068L153.557 42.9839C153.274 43.3261 153.45 43.8465 153.882 43.9466L172.805 48.3256C173.339 48.4492 173.438 49.167 172.958 49.4311L128.873 73.6576C128.269 73.9894 127.676 73.2046 128.16 72.7144L148.16 52.4594C148.468 52.1477 148.346 51.6215 147.933 51.4762L131.291 45.6254C130.81 45.4563 130.748 44.8011 131.189 44.5452Z" fill="#FDECD1"/>
<rect width="100.436" height="100.436" transform="translate(201.871 1)" fill="#E63D41"/>
<path d="M231.625 49.324L269.259 27.4882C269.836 27.1536 270.444 27.8719 270.019 28.3856L253.992 47.7628C253.709 48.1049 253.885 48.6253 254.318 48.7255L273.24 53.1044C273.775 53.2281 273.874 53.9458 273.393 54.2099L229.308 78.4364C228.704 78.7682 228.111 77.9834 228.595 77.4932L248.596 57.2383C248.903 56.9265 248.782 56.4003 248.369 56.255L231.727 50.4042C231.246 50.2351 231.184 49.5799 231.625 49.324Z" fill="#FFD832"/>
<path d="M231.625 46.9346L269.259 25.0988C269.836 24.7642 270.444 25.4825 270.019 25.9962L253.992 45.3734C253.709 45.7155 253.885 46.2359 254.318 46.336L273.24 50.715C273.775 50.8387 273.874 51.5564 273.393 51.8205L229.308 76.047C228.704 76.3788 228.111 75.594 228.595 75.1038L248.596 54.8488C248.903 54.5371 248.782 54.0109 248.369 53.8656L231.727 48.0148C231.246 47.8457 231.184 47.1905 231.625 46.9346Z" fill="#E63D41"/>
<path d="M231.625 44.5452L269.259 22.7094C269.836 22.3748 270.444 23.0931 270.019 23.6068L253.992 42.9839C253.709 43.3261 253.885 43.8465 254.318 43.9466L273.24 48.3256C273.775 48.4492 273.874 49.167 273.393 49.4311L229.308 73.6576C228.704 73.9894 228.111 73.2046 228.595 72.7144L248.596 52.4594C248.903 52.1477 248.782 51.6215 248.369 51.4762L231.727 45.6254C231.246 45.4563 231.184 44.8011 231.625 44.5452Z" fill="#FDECD1"/>
<rect width="100.436" height="100.436" transform="translate(1 101.436)" fill="#E63D41"/>
<path d="M30.7533 149.76L68.3878 127.924C68.9644 127.589 69.5728 128.308 69.1479 128.821L53.1207 148.198C52.8376 148.541 53.0137 149.061 53.4463 149.161L72.3689 153.54C72.9031 153.664 73.0024 154.382 72.5219 154.646L28.4366 178.872C27.8328 179.204 27.2398 178.419 27.7238 177.929L47.7239 157.674C48.0318 157.362 47.9103 156.836 47.497 156.691L30.855 150.84C30.3739 150.671 30.3123 150.016 30.7533 149.76Z" fill="#FFD832"/>
<path d="M30.7533 147.37L68.3878 125.534C68.9644 125.2 69.5728 125.918 69.1479 126.432L53.1207 145.809C52.8376 146.151 53.0137 146.671 53.4463 146.771L72.3689 151.15C72.9031 151.274 73.0024 151.992 72.5219 152.256L28.4366 176.482C27.8328 176.814 27.2398 176.029 27.7238 175.539L47.7239 155.284C48.0318 154.972 47.9103 154.446 47.497 154.301L30.855 148.45C30.3739 148.281 30.3123 147.626 30.7533 147.37Z" fill="#E63D41"/>
<path d="M30.7533 144.981L68.3878 123.145C68.9644 122.81 69.5728 123.529 69.1479 124.042L53.1207 143.42C52.8376 143.762 53.0137 144.282 53.4463 144.382L72.3689 148.761C72.9031 148.885 73.0024 149.603 72.5219 149.867L28.4366 174.093C27.8328 174.425 27.2398 173.64 27.7238 173.15L47.7239 152.895C48.0318 152.583 47.9103 152.057 47.497 151.912L30.855 146.061C30.3739 145.892 30.3123 145.237 30.7533 144.981Z" fill="#FDECD1"/>
<rect width="100.436" height="100.436" transform="translate(101.436 101.436)" fill="#E63D41"/>
<path d="M131.189 149.76L168.824 127.924C169.4 127.589 170.009 128.308 169.584 128.821L153.557 148.198C153.274 148.541 153.45 149.061 153.882 149.161L172.805 153.54C173.339 153.664 173.438 154.382 172.958 154.646L128.873 178.872C128.269 179.204 127.676 178.419 128.16 177.929L148.16 157.674C148.468 157.362 148.346 156.836 147.933 156.691L131.291 150.84C130.81 150.671 130.748 150.016 131.189 149.76Z" fill="#FFD832"/>
<path d="M131.189 147.37L168.824 125.534C169.4 125.2 170.009 125.918 169.584 126.431L153.557 145.809C153.274 146.151 153.45 146.671 153.882 146.771L172.805 151.15C173.339 151.274 173.438 151.992 172.958 152.256L128.873 176.482C128.269 176.814 127.676 176.029 128.16 175.539L148.16 155.284C148.468 154.972 148.346 154.446 147.933 154.301L131.291 148.45C130.81 148.281 130.748 147.626 131.189 147.37Z" fill="#E63D41"/>
<path d="M131.189 144.981L168.824 123.145C169.4 122.81 170.009 123.529 169.584 124.042L153.557 143.419C153.274 143.762 153.45 144.282 153.882 144.382L172.805 148.761C173.339 148.885 173.438 149.603 172.958 149.867L128.873 174.093C128.269 174.425 127.676 173.64 128.16 173.15L148.16 152.895C148.468 152.583 148.346 152.057 147.933 151.912L131.291 146.061C130.81 145.892 130.748 145.237 131.189 144.981Z" fill="#FDECD1"/>
<rect width="100.436" height="100.436" transform="translate(201.871 101.436)" fill="#E63D41"/>
<path d="M231.625 149.76L269.259 127.924C269.836 127.589 270.444 128.307 270.019 128.821L253.992 148.198C253.709 148.54 253.885 149.061 254.318 149.161L273.24 153.54C273.775 153.664 273.874 154.381 273.393 154.645L229.308 178.872C228.704 179.204 228.111 178.419 228.595 177.929L248.596 157.674C248.903 157.362 248.782 156.836 248.369 156.691L231.727 150.84C231.246 150.671 231.184 150.015 231.625 149.76Z" fill="#FFD832"/>
<path d="M231.625 147.37L269.259 125.534C269.836 125.2 270.444 125.918 270.019 126.431L253.992 145.809C253.709 146.151 253.885 146.671 254.318 146.771L273.24 151.15C273.775 151.274 273.874 151.992 273.393 152.256L229.308 176.482C228.704 176.814 228.111 176.029 228.595 175.539L248.596 155.284C248.903 154.972 248.782 154.446 248.369 154.301L231.727 148.45C231.246 148.281 231.184 147.626 231.625 147.37Z" fill="#E63D41"/>
<path d="M231.625 144.981L269.259 123.145C269.836 122.81 270.444 123.529 270.019 124.042L253.992 143.419C253.709 143.762 253.885 144.282 254.318 144.382L273.24 148.761C273.775 148.885 273.874 149.603 273.393 149.867L229.308 174.093C228.704 174.425 228.111 173.64 228.595 173.15L248.596 152.895C248.903 152.583 248.782 152.057 248.369 151.912L231.727 146.061C231.246 145.892 231.184 145.237 231.625 144.981Z" fill="#FDECD1"/>
<rect width="100.436" height="100.436" transform="translate(1 201.871)" fill="#E63D41"/>
<path d="M30.7533 250.195L68.3878 228.359C68.9644 228.025 69.5728 228.743 69.1479 229.257L53.1207 248.634C52.8376 248.976 53.0137 249.497 53.4463 249.597L72.3689 253.976C72.9031 254.099 73.0024 254.817 72.5219 255.081L28.4366 279.308C27.8328 279.639 27.2398 278.855 27.7238 278.364L47.7239 258.109C48.0318 257.798 47.9103 257.272 47.497 257.126L30.855 251.275C30.3739 251.106 30.3123 250.451 30.7533 250.195Z" fill="#FFD832"/>
<path d="M30.7533 247.806L68.3878 225.97C68.9644 225.635 69.5728 226.353 69.1479 226.867L53.1207 246.244C52.8376 246.587 53.0137 247.107 53.4463 247.207L72.3689 251.586C72.9031 251.71 73.0024 252.427 72.5219 252.691L28.4366 276.918C27.8328 277.25 27.2398 276.465 27.7238 275.975L47.7239 255.72C48.0318 255.408 47.9103 254.882 47.497 254.737L30.855 248.886C30.3739 248.717 30.3123 248.061 30.7533 247.806Z" fill="#E63D41"/>
<path d="M30.7533 245.416L68.3878 223.58C68.9644 223.246 69.5728 223.964 69.1479 224.478L53.1207 243.855C52.8376 244.197 53.0137 244.718 53.4463 244.818L72.3689 249.197C72.9031 249.32 73.0024 250.038 72.5219 250.302L28.4366 274.529C27.8328 274.86 27.2398 274.076 27.7238 273.585L47.7239 253.33C48.0318 253.019 47.9103 252.492 47.497 252.347L30.855 246.496C30.3739 246.327 30.3123 245.672 30.7533 245.416Z" fill="#FDECD1"/>
<rect width="100.436" height="100.436" transform="translate(101.436 201.871)" fill="#E63D41"/>
<path d="M131.189 250.195L168.824 228.359C169.4 228.025 170.009 228.743 169.584 229.257L153.557 248.634C153.274 248.976 153.45 249.497 153.882 249.597L172.805 253.976C173.339 254.099 173.438 254.817 172.958 255.081L128.873 279.308C128.269 279.639 127.676 278.855 128.16 278.364L148.16 258.109C148.468 257.798 148.346 257.272 147.933 257.126L131.291 251.275C130.81 251.106 130.748 250.451 131.189 250.195Z" fill="#FFD832"/>
<path d="M131.189 247.806L168.824 225.97C169.4 225.635 170.009 226.353 169.584 226.867L153.557 246.244C153.274 246.587 153.45 247.107 153.882 247.207L172.805 251.586C173.339 251.71 173.438 252.427 172.958 252.691L128.873 276.918C128.269 277.25 127.676 276.465 128.16 275.975L148.16 255.72C148.468 255.408 148.346 254.882 147.933 254.737L131.291 248.886C130.81 248.717 130.748 248.061 131.189 247.806Z" fill="#E63D41"/>
<path d="M131.189 245.416L168.824 223.58C169.4 223.246 170.009 223.964 169.584 224.478L153.557 243.855C153.274 244.197 153.45 244.718 153.882 244.818L172.805 249.197C173.339 249.32 173.438 250.038 172.958 250.302L128.873 274.529C128.269 274.86 127.676 274.076 128.16 273.585L148.16 253.33C148.468 253.019 148.346 252.492 147.933 252.347L131.291 246.496C130.81 246.327 130.748 245.672 131.189 245.416Z" fill="#FDECD1"/>
<rect width="100.436" height="100.436" transform="translate(201.871 201.871)" fill="#E63D41"/>
<path d="M231.625 250.195L269.259 228.359C269.836 228.025 270.444 228.743 270.019 229.257L253.992 248.634C253.709 248.976 253.885 249.497 254.318 249.597L273.24 253.976C273.775 254.099 273.874 254.817 273.393 255.081L229.308 279.308C228.704 279.639 228.111 278.855 228.595 278.364L248.596 258.109C248.903 257.798 248.782 257.272 248.369 257.126L231.727 251.275C231.246 251.106 231.184 250.451 231.625 250.195Z" fill="#FFD832"/>
<path d="M231.625 247.806L269.259 225.97C269.836 225.635 270.444 226.353 270.019 226.867L253.992 246.244C253.709 246.587 253.885 247.107 254.318 247.207L273.24 251.586C273.775 251.71 273.874 252.427 273.393 252.691L229.308 276.918C228.704 277.25 228.111 276.465 228.595 275.975L248.596 255.72C248.903 255.408 248.782 254.882 248.369 254.737L231.727 248.886C231.246 248.717 231.184 248.061 231.625 247.806Z" fill="#E63D41"/>
<path d="M231.625 245.416L269.259 223.58C269.836 223.246 270.444 223.964 270.019 224.478L253.992 243.855C253.709 244.197 253.885 244.718 254.318 244.818L273.24 249.197C273.775 249.32 273.874 250.038 273.393 250.302L229.308 274.529C228.704 274.86 228.111 274.076 228.595 273.585L248.596 253.33C248.903 253.019 248.782 252.492 248.369 252.347L231.727 246.496C231.246 246.327 231.184 245.672 231.625 245.416Z" fill="#FDECD1"/>
<path d="M1 302.307L302.307 302.307" stroke="#111111" stroke-width="1.26866"/>
<path d="M1 201.871L302.307 201.871" stroke="#111111" stroke-width="1.26866"/>
<path d="M1 101.436L302.307 101.436" stroke="#111111" stroke-width="1.26866"/>
<path d="M1 1L302.307 0.999987" stroke="#111111" stroke-width="1.26866"/>
<path d="M1 1V302.307" stroke="#111111" stroke-width="1.26866"/>
<path d="M101.436 1V302.307" stroke="#111111" stroke-width="1.26866"/>
<path d="M201.871 1V302.307" stroke="#111111" stroke-width="1.26866"/>
<path d="M302.307 1V302.307" stroke="#111111" stroke-width="1.26866"/>
</svg>
