<svg width="224" height="224" viewBox="0 0 224 224" fill="none" xmlns="http://www.w3.org/2000/svg">
<rect width="224" height="224" fill="#E7E7E7"/>
<rect x="0.5" y="0.5" width="223" height="223" fill="#E63D41"/>
<path d="M32.625 104.605C38.4258 104.605 42.918 103.883 46.082 102.457C49.2461 101.031 50.8281 98.8242 50.8281 95.8359C50.8281 93.5508 49.6758 91.793 47.8398 90.8359C46.0039 89.8789 43.5625 89.2734 40.9258 89.0586C34.4023 88.4336 27.0781 89.293 27.0781 87.2031C27.0781 86.7539 27.6055 86.4219 28.6406 86.207C29.6758 85.9922 31.043 85.875 32.7422 85.875C35.5156 85.875 38.2305 86.168 40.8672 86.7539C43.5039 87.3594 45.7109 88.1602 47.5078 89.1562V77.5547C45.6133 76.9102 43.2305 76.3828 40.3789 75.9922C37.5273 75.6016 34.832 75.4062 32.2734 75.4062C27.9961 75.4062 24.4805 75.7578 21.3945 76.6172C16.8828 77.8672 14.0703 80.2109 14.0703 84C14.0703 95.0352 37.7031 89.957 37.7031 93.043C37.7031 93.8047 35.8867 94.1953 32.2734 94.1953C28.4258 94.1953 24.9492 93.7852 21.8438 92.9648C18.7383 92.1445 16.1992 90.9336 14.2266 89.3125L13.7578 102.008C15.9453 102.672 18.9922 103.277 22.8789 103.805C26.7656 104.332 30.0273 104.605 32.625 104.605ZM71.043 104.605C76.668 104.605 81.4531 103.316 84.9297 100.934C88.4062 98.5508 90.4375 94.7422 90.4375 89.9961C90.4375 80.3086 82.1953 75.3867 71.043 75.4062C59.8516 75.3867 51.5898 80.3086 51.5898 89.9961C51.5898 99.6836 59.8516 104.605 71.043 104.605ZM71.043 94.918C66.9609 94.918 64.4414 93.1797 64.4414 89.9961C64.4414 86.8125 66.9609 85.0742 71.043 85.0742C75.0859 85.0742 77.6055 86.8125 77.6055 89.9961C77.6055 93.1797 75.0859 94.918 71.043 94.918ZM123.094 104.605C124.559 104.605 125.965 104.312 127.332 103.727C128.68 103.16 129.617 102.438 130.105 101.598V87.4766C129.5 88.8242 128.504 89.957 127.117 90.875C125.73 91.8125 124.031 92.2812 122.02 92.2812C118.191 92.2812 116.102 91.168 114.168 91.168H114.129V90.7578H115.223C118.035 90.7578 120.477 90.5039 122.527 89.9961C124.578 89.5078 126.219 88.6875 127.449 87.5547C128.66 86.4414 129.266 85.0547 129.266 83.3945C129.266 81.7539 128.66 80.3672 127.43 79.2344C124.969 76.9688 120.75 75.9922 115.145 75.9922H92.2148C92.6641 77.418 93.0156 79.2539 93.2891 81.4609C93.5625 83.668 93.6992 85.7969 93.6992 87.8086V92.2031C93.6992 94.2539 93.5625 96.3828 93.3086 98.5898C93.0352 100.797 92.6641 102.594 92.2148 104H107.781C107.312 102.555 106.941 100.836 106.688 98.8633C106.434 96.8906 106.297 94.8984 106.297 92.8867V92.4766C106.59 92.3398 106.961 92.2812 107.41 92.2812C110.535 92.2812 111.551 94.7031 112.781 97.418C113.387 98.7656 114.031 100.172 115.086 101.402C116.57 103.238 118.992 104.605 123.094 104.605ZM106.297 86.5977H113.621C115.633 86.5977 116.648 87.1055 116.648 88.1211C116.648 89.1172 115.438 89.6445 113.621 89.6445H106.297V86.5977ZM163.445 104.605C164.91 104.605 166.316 104.312 167.684 103.727C169.031 103.16 169.969 102.438 170.457 101.598V87.4766C169.852 88.8242 168.855 89.957 167.469 90.875C166.082 91.8125 164.383 92.2812 162.371 92.2812C158.543 92.2812 156.453 91.168 154.52 91.168H154.48V90.7578H155.574C158.387 90.7578 160.828 90.5039 162.879 89.9961C164.93 89.5078 166.57 88.6875 167.801 87.5547C169.012 86.4414 169.617 85.0547 169.617 83.3945C169.617 81.7539 169.012 80.3672 167.781 79.2344C165.32 76.9688 161.102 75.9922 155.496 75.9922H132.566C133.016 77.418 133.367 79.2539 133.641 81.4609C133.914 83.668 134.051 85.7969 134.051 87.8086V92.2031C134.051 94.2539 133.914 96.3828 133.66 98.5898C133.387 100.797 133.016 102.594 132.566 104H148.133C147.664 102.555 147.293 100.836 147.039 98.8633C146.785 96.8906 146.648 94.8984 146.648 92.8867V92.4766C146.941 92.3398 147.312 92.2812 147.762 92.2812C150.887 92.2812 151.902 94.7031 153.133 97.418C153.738 98.7656 154.383 100.172 155.438 101.402C156.922 103.238 159.344 104.605 163.445 104.605ZM146.648 86.5977H153.973C155.984 86.5977 157 87.1055 157 88.1211C157 89.1172 155.789 89.6445 153.973 89.6445H146.648V86.5977ZM197.84 104C197.508 102.73 197.215 101.207 196.98 99.4492C196.746 97.7109 196.629 96.0117 196.629 94.3906V93.7266L204.559 84.5664C205.613 83.1016 206.844 81.5586 208.25 79.9375C209.656 78.3164 210.906 77.0078 212 75.9922H195.223C194.051 78.5508 192.898 80.6602 191.785 82.3203L190.516 83.9609H190.027L188.758 82.3594C187.762 80.8164 186.609 78.707 185.32 75.9922H168.543C169.617 77.0078 170.867 78.3164 172.273 79.9375C173.68 81.5586 174.93 83.1016 176.023 84.5664L183.953 93.6484V94.2734C183.953 95.9336 183.836 97.6328 183.602 99.4102C183.367 101.188 183.074 102.73 182.703 104H197.84Z" fill="#FDECD1"/>
<path d="M43.8828 136C44.7031 136 45.4297 135.898 46.0625 135.695C46.6953 135.5 47.2109 135.18 47.6094 134.734C48.0078 134.289 48.2031 133.75 48.2031 133.117C48.2031 131.172 46.2656 130.258 43.8828 130.258H43.2422V130.031H43.5469C44.2891 130.031 44.9531 129.938 45.5391 129.75C46.125 129.57 46.5938 129.273 46.9609 128.875C47.3203 128.477 47.5 127.992 47.5 127.422C47.5 126.844 47.3203 126.352 46.9531 125.953C46.2188 125.148 45 124.797 43.4688 124.797H33.5156C33.6875 125.367 33.8281 126.094 33.9453 126.984C34.0547 127.883 34.1094 128.727 34.1094 129.523V131.281C34.1094 132.086 34.0547 132.93 33.9453 133.812C33.8359 134.695 33.6953 135.43 33.5156 136H43.8828ZM39.1328 128.516H41.8203C42.3203 128.516 42.6484 128.703 42.6484 129.07C42.6484 129.438 42.3203 129.633 41.8203 129.633H39.1328V128.516ZM39.1328 130.852H42.1875C42.7422 130.852 43.1016 131.078 43.1016 131.523C43.1016 131.961 42.7422 132.195 42.1875 132.195H39.1328V130.852ZM62.3125 136L63.1094 130.914C62.2891 131.508 60.9141 131.805 58.9844 131.805H54.6953V131.086H57.7031C58.6172 131.086 59.3672 131.125 59.9453 131.203V129.633C59.3672 129.695 58.6172 129.727 57.7031 129.727H54.6953V128.992H59.1406C60.7578 128.992 62.0391 129.219 62.5703 129.617L61.9297 124.797H49.0625C49.2344 125.367 49.375 126.094 49.4922 126.984C49.6016 127.883 49.6562 128.727 49.6562 129.523V131.281C49.6562 132.102 49.6016 132.953 49.5 133.836C49.3906 134.719 49.2422 135.438 49.0625 136H62.3125ZM73.6953 136C73.5156 135.43 73.375 134.695 73.2656 133.812C73.1562 132.93 73.1016 132.086 73.1016 131.281V129.148H74.2891C75.7344 129.148 76.875 129.328 77.7109 129.695L76.8516 124.797H64.2734L63.4062 129.695C64.2266 129.328 65.375 129.148 66.8516 129.148H68.0625V131.281C68.0625 132.102 68.0078 132.945 67.9062 133.828C67.8047 134.711 67.6641 135.43 67.4844 136H73.6953ZM88.1641 136C87.9844 135.43 87.8438 134.695 87.7344 133.812C87.625 132.93 87.5703 132.086 87.5703 131.281V129.148H88.7578C90.2031 129.148 91.3438 129.328 92.1797 129.695L91.3203 124.797H78.7422L77.875 129.695C78.6953 129.328 79.8438 129.148 81.3203 129.148H82.5312V131.281C82.5312 132.102 82.4766 132.945 82.375 133.828C82.2734 134.711 82.1328 135.43 81.9531 136H88.1641ZM106.203 136L107 130.914C106.18 131.508 104.805 131.805 102.875 131.805H98.5859V131.086H101.594C102.508 131.086 103.258 131.125 103.836 131.203V129.633C103.258 129.695 102.508 129.727 101.594 129.727H98.5859V128.992H103.031C104.648 128.992 105.93 129.219 106.461 129.617L105.82 124.797H92.9531C93.125 125.367 93.2656 126.094 93.3828 126.984C93.4922 127.883 93.5469 128.727 93.5469 129.523V131.281C93.5469 132.102 93.4922 132.953 93.3906 133.836C93.2812 134.719 93.1328 135.438 92.9531 136H106.203ZM120.258 136.242C120.844 136.242 121.406 136.125 121.953 135.891C122.492 135.664 122.867 135.375 123.062 135.039V129.391C122.82 129.93 122.422 130.383 121.867 130.75C121.312 131.125 120.633 131.312 119.828 131.312C118.297 131.312 117.461 130.867 116.688 130.867H116.672V130.703H117.109C118.234 130.703 119.211 130.602 120.031 130.398C120.852 130.203 121.508 129.875 122 129.422C122.484 128.977 122.727 128.422 122.727 127.758C122.727 127.102 122.484 126.547 121.992 126.094C121.008 125.188 119.32 124.797 117.078 124.797H107.906C108.086 125.367 108.227 126.102 108.336 126.984C108.445 127.867 108.5 128.719 108.5 129.523V131.281C108.5 132.102 108.445 132.953 108.344 133.836C108.234 134.719 108.086 135.438 107.906 136H114.133C113.945 135.422 113.797 134.734 113.695 133.945C113.594 133.156 113.539 132.359 113.539 131.555V131.391C113.656 131.336 113.805 131.312 113.984 131.312C115.234 131.312 115.641 132.281 116.133 133.367C116.375 133.906 116.633 134.469 117.055 134.961C117.648 135.695 118.617 136.242 120.258 136.242ZM113.539 129.039H116.469C117.273 129.039 117.68 129.242 117.68 129.648C117.68 130.047 117.195 130.258 116.469 130.258H113.539V129.039ZM138.398 136.242C138.75 136.242 139.117 136.195 139.484 136.094C139.852 135.992 140.094 135.914 140.219 135.859C140.336 135.805 140.43 135.75 140.5 135.711V130.914C140.094 131.148 139.57 131.336 138.93 131.469C138.289 131.609 137.609 131.68 136.883 131.68H133.586V130.18C133.586 129.328 133.648 128.359 133.766 127.258C133.883 126.156 134.023 125.336 134.195 124.797H127.969C128.141 125.367 128.281 126.094 128.398 126.984C128.508 127.883 128.562 128.727 128.562 129.523V131.281C128.562 132.102 128.508 132.992 128.398 133.953C128.289 134.914 128.148 135.68 127.969 136.242C129.008 135.695 130.25 135.422 131.695 135.422C132.367 135.422 133.016 135.461 133.648 135.547C134.273 135.633 134.789 135.727 135.203 135.828C135.617 135.93 136.109 136.031 136.68 136.117C137.25 136.203 137.828 136.242 138.398 136.242ZM148.5 136.242C153.078 136.242 155.367 134.445 155.367 130.852V129.523C155.367 128.719 155.422 127.867 155.523 126.984C155.625 126.102 155.766 125.367 155.938 124.797H149.734C149.914 125.367 150.055 126.109 150.164 127.023C150.273 127.945 150.328 128.812 150.328 129.633V129.922C150.328 130.508 150.172 130.992 149.852 131.367C149.531 131.75 149.086 131.938 148.516 131.938C147.945 131.938 147.5 131.75 147.188 131.367C146.867 130.992 146.711 130.508 146.711 129.922V129.633C146.711 128.82 146.766 127.953 146.867 127.031C146.969 126.109 147.109 125.367 147.281 124.797H141.078C141.258 125.367 141.398 126.102 141.508 126.984C141.617 127.867 141.672 128.719 141.672 129.523V130.852C141.672 134.5 143.969 136.242 148.5 136.242ZM164.93 136.242C166.992 136.242 168.992 136.031 170.93 135.617V130.492C169.594 131.422 167.953 131.891 166 131.891C163.195 131.891 161.797 131.391 161.797 130.383C161.797 130.047 161.969 129.766 162.312 129.539C162.992 129.078 164.109 128.898 165.555 128.898C166.5 128.898 167.383 129.023 168.203 129.281C169.023 129.539 169.641 129.844 170.07 130.211L170.438 125.539C169.742 125.25 168.906 125.016 167.93 124.836C166.953 124.656 165.898 124.562 164.773 124.562C163.023 124.562 161.469 124.812 160.086 125.406C159.391 125.711 158.797 126.078 158.297 126.523C157.297 127.406 156.672 128.758 156.672 130.383C156.672 132.008 157.32 133.367 158.352 134.258C158.867 134.703 159.477 135.078 160.188 135.383C161.602 135.984 163.18 136.242 164.93 136.242ZM184.32 136.242C184.875 136.242 185.398 136.109 185.891 135.836C186.375 135.57 186.719 135.25 186.93 134.867V128.977C186.438 130.078 185.461 130.625 184 130.625C183.133 130.625 182.305 130.43 181.812 130.242C181.32 130.055 180.578 129.859 179.859 129.859H179.812V129.633H181.141C181.797 129.633 182.352 129.617 182.805 129.594C183.711 129.539 184.562 129.406 185.062 129.156C185.844 128.758 186.195 128.109 186.195 126.945C186.195 126.164 186.031 125.445 185.695 124.797H180.117C180.469 125.43 180.641 126.102 180.641 126.828C180.641 128.391 179.789 129.234 178.289 129.234H177.523V129.117C177.523 128.352 177.578 127.578 177.688 126.805C177.797 126.031 177.938 125.367 178.117 124.797H171.891C172.07 125.352 172.211 126.078 172.32 126.969C172.43 127.867 172.484 128.719 172.484 129.523V131.281C172.484 132.102 172.43 132.953 172.328 133.836C172.219 134.719 172.07 135.438 171.891 136H178.117C177.938 135.445 177.789 134.695 177.688 133.766C177.578 132.836 177.523 131.953 177.523 131.117V130.305C177.672 130.219 177.836 130.18 178.031 130.18C179.32 130.18 179.734 131.375 180.227 132.703C180.469 133.375 180.719 134.07 181.141 134.672C181.727 135.562 182.672 136.25 184.32 136.242ZM56.4922 152C56.3438 151.508 56.2031 150.734 56.0859 149.68C55.9609 148.625 55.8984 147.688 55.8984 146.852V146.594H56.1562L61.2109 152H65.8047V145.523C65.8047 144.727 65.8594 143.883 65.9688 142.984C66.0781 142.086 66.2188 141.359 66.3906 140.797H60.1875C60.3281 141.258 60.4609 141.945 60.5781 142.852C60.6953 143.766 60.75 144.609 60.75 145.391V145.68H60.5078L56.0547 140.812L50.2656 140.797C50.4453 141.359 50.5938 142.078 50.7031 142.961C50.8047 143.844 50.8594 144.703 50.8594 145.523V147.281C50.8594 148.086 50.8047 148.93 50.6953 149.812C50.5859 150.695 50.4453 151.43 50.2656 152H56.4922ZM81.0156 152L81.8125 146.914C80.9922 147.508 79.6172 147.805 77.6875 147.805H73.3984V147.086H76.4062C77.3203 147.086 78.0703 147.125 78.6484 147.203V145.633C78.0703 145.695 77.3203 145.727 76.4062 145.727H73.3984V144.992H77.8438C79.4609 144.992 80.7422 145.219 81.2734 145.617L80.6328 140.797H67.7656C67.9375 141.367 68.0781 142.094 68.1953 142.984C68.3047 143.883 68.3594 144.727 68.3594 145.523V147.281C68.3594 148.102 68.3047 148.953 68.2031 149.836C68.0938 150.719 67.9453 151.438 67.7656 152H81.0156ZM88.2266 152C88.5938 151.172 89.0781 150.328 89.6641 149.469L90.2891 148.688H90.4609L91.1016 149.469C91.6719 150.32 92.1484 151.164 92.5234 152H99.2344C98.8203 151.609 98.3359 151.094 97.7812 150.445C97.2266 149.805 96.7188 149.18 96.2578 148.578L93.9688 146.141L95.7891 144.227C96.9531 142.625 97.9141 141.477 98.6719 140.797H92.0156C91.7734 141.438 91.3359 142.219 90.7188 143.148L90.4766 143.484H90.2891L90.0625 143.148C89.4297 142.219 88.9922 141.438 88.75 140.797H82.0781C82.8125 141.445 83.7734 142.594 84.9609 144.227L86.7969 146.141L84.5078 148.578C84.0625 149.172 83.5547 149.789 82.9922 150.438C82.4297 151.086 81.9375 151.602 81.5156 152H88.2266ZM109.086 152C108.906 151.43 108.766 150.695 108.656 149.812C108.547 148.93 108.492 148.086 108.492 147.281V145.148H109.68C111.125 145.148 112.266 145.328 113.102 145.695L112.242 140.797H99.6641L98.7969 145.695C99.6172 145.328 100.766 145.148 102.242 145.148H103.453V147.281C103.453 148.102 103.398 148.945 103.297 149.828C103.195 150.711 103.055 151.43 102.875 152H109.086ZM127.039 152C126.859 151.43 126.719 150.695 126.609 149.812C126.5 148.93 126.445 148.086 126.445 147.281V145.148H127.633C129.078 145.148 130.219 145.328 131.055 145.695L130.195 140.797H117.617L116.75 145.695C117.57 145.328 118.719 145.148 120.195 145.148H121.406V147.281C121.406 148.102 121.352 148.945 121.25 149.828C121.148 150.711 121.008 151.43 120.828 152H127.039ZM138.055 152C137.875 151.438 137.727 150.719 137.625 149.836C137.516 148.953 137.461 148.102 137.461 147.281V145.523C137.461 144.719 137.516 143.867 137.625 142.969C137.734 142.078 137.875 141.352 138.055 140.797H131.828C132.008 141.352 132.148 142.078 132.258 142.969C132.367 143.867 132.422 144.719 132.422 145.523V147.281C132.422 148.102 132.367 148.953 132.266 149.836C132.156 150.719 132.008 151.438 131.828 152H138.055ZM145.648 152C145.484 151.492 145.352 150.75 145.242 149.789C145.125 148.828 145.07 147.938 145.07 147.117V146.414H145.266L148.445 152H149.68L152.891 146.414H153.148V147.117C153.148 147.93 153.094 148.82 152.977 149.781C152.859 150.742 152.727 151.484 152.578 152H158.781C158.609 151.422 158.469 150.688 158.367 149.805C158.258 148.922 158.203 148.086 158.203 147.281V145.523C158.203 144.703 158.258 143.852 158.359 142.969C158.461 142.086 158.602 141.367 158.781 140.797H152.258L150.125 144.625C149.898 145.039 149.742 145.359 149.648 145.594C149.547 145.828 149.43 146.188 149.281 146.672H149.07C148.914 146.172 148.781 145.797 148.68 145.539C148.57 145.281 148.414 144.977 148.219 144.625L146.109 140.797H139.422C139.602 141.359 139.75 142.078 139.859 142.961C139.961 143.844 140.016 144.703 140.016 145.523V147.281C140.016 148.086 139.961 148.93 139.852 149.812C139.742 150.695 139.602 151.43 139.422 152H145.648ZM173.406 152L174.203 146.914C173.383 147.508 172.008 147.805 170.078 147.805H165.789V147.086H168.797C169.711 147.086 170.461 147.125 171.039 147.203V145.633C170.461 145.695 169.711 145.727 168.797 145.727H165.789V144.992H170.234C171.852 144.992 173.133 145.219 173.664 145.617L173.023 140.797H160.156C160.328 141.367 160.469 142.094 160.586 142.984C160.695 143.883 160.75 144.727 160.75 145.523V147.281C160.75 148.102 160.695 148.953 160.594 149.836C160.484 150.719 160.336 151.438 160.156 152H173.406Z" fill="#FDECD1"/>
<rect x="0.5" y="0.5" width="223" height="223" stroke="black"/>
</svg>
